<?xml version="1.0" standalone="no"?>
<!DOCTYPE svg PUBLIC "-//W3C//DTD SVG 20010904//EN"
 "http://www.w3.org/TR/2001/REC-SVG-20010904/DTD/svg10.dtd">
<svg version="1.0" xmlns="http://www.w3.org/2000/svg"
 width="1920.000000pt" height="1080.000000pt" viewBox="0 0 1920.000000 1080.000000"
 preserveAspectRatio="xMidYMid meet">

<g transform="translate(0.000000,1080.000000) scale(0.100000,-0.100000)"
fill="#000000" stroke="none">
<path d="M0 5400 l0 -5400 9600 0 9600 0 0 5400 0 5400 -9600 0 -9600 0 0
-5400z m10353 4166 c5 -12 -1 -12 -31 -4 -50 14 -52 18 -10 18 22 0 38 -6 41
-14z m-115 -27 c35 -6 72 -19 82 -29 13 -13 43 -19 119 -25 69 -5 101 -11 98
-19 -4 -12 -26 -13 -149 -2 -60 5 -93 4 -108 -4 -12 -7 -18 -15 -14 -19 5 -5
79 -30 164 -56 85 -26 158 -51 163 -54 4 -4 -1 -15 -11 -25 -20 -18 10 -25
-601 150 -53 15 -53 16 -31 31 21 15 30 14 116 -6 114 -26 115 -26 148 0 35
27 24 39 -51 55 -47 10 -52 12 -24 13 19 1 63 -4 99 -10z m362 -39 l25 -8 -25
0 c-14 0 -34 3 -45 8 l-20 9 20 -1 c11 0 31 -4 45 -8z m-555 -119 c60 -26 67
-44 59 -149 -6 -75 -4 -89 10 -101 40 -34 104 -8 211 85 l60 52 40 -16 c22 -8
42 -17 45 -19 14 -12 -158 -134 -236 -169 -96 -42 -195 -26 -234 38 -22 36
-26 100 -10 144 8 20 8 36 -1 56 -36 86 -152 53 -282 -80 -48 -49 -49 -49 -88
-40 -21 6 -39 14 -39 17 0 11 61 73 110 113 120 95 242 119 355 69z m1130
-114 c15 -12 16 -15 4 -22 -8 -5 -10 -4 -6 0 4 5 -3 15 -15 22 -13 7 -18 12
-12 13 5 0 18 -6 29 -13z m237 -11 c7 4 8 2 4 -4 -4 -6 -13 -9 -21 -6 -8 4
-12 11 -8 17 5 8 8 7 11 -1 2 -7 9 -9 14 -6z m-315 -12 c-3 -3 -12 -4 -19 -1
-8 3 -5 6 6 6 11 1 17 -2 13 -5z m376 -17 c-5 -8 -8 -7 -11 1 -2 7 -9 9 -14 6
-7 -4 -8 -2 -4 4 4 6 13 9 21 6 8 -4 12 -11 8 -17z m-383 -11 c0 -2 -7 -7 -16
-10 -8 -3 -12 -2 -9 4 6 10 25 14 25 6z m-720 -196 c-24 -15 -36 -11 -14 4 10
8 21 12 24 10 2 -3 -2 -9 -10 -14z m245 -24 c13 -9 16 -18 10 -32 -4 -10 -7
-23 -6 -27 1 -5 -3 -6 -8 -3 -5 3 -20 -10 -35 -28 -14 -19 -33 -41 -41 -50
-14 -13 -13 -16 2 -25 11 -6 13 -11 5 -11 -8 0 -10 -5 -6 -12 5 -8 1 -7 -10 2
-16 12 -19 12 -28 -4 -6 -10 -19 -27 -30 -38 -17 -17 -18 -22 -7 -30 11 -8 10
-9 -3 -5 -12 4 -29 -10 -57 -48 -23 -30 -41 -56 -40 -57 1 -2 -17 -23 -40 -48
-23 -25 -39 -50 -37 -57 3 -6 -3 -17 -12 -25 -16 -12 -16 -11 -2 7 14 19 14
19 -2 6 -10 -7 -18 -18 -18 -23 0 -5 -11 -21 -24 -35 -13 -14 -22 -33 -19 -42
4 -13 3 -13 -5 -2 -8 11 -12 10 -21 -7 -14 -27 -14 -35 2 -26 6 4 0 -6 -16
-23 -15 -16 -25 -32 -22 -36 3 -4 2 -5 -1 -2 -11 8 -45 -38 -39 -52 2 -8 0
-11 -5 -8 -6 3 -10 -1 -10 -10 0 -9 -4 -14 -8 -11 -11 7 -45 -51 -37 -64 3 -6
1 -10 -4 -10 -6 0 -10 -3 -8 -8 1 -4 -7 -26 -17 -50 -12 -27 -25 -42 -38 -42
-10 0 -18 5 -18 10 0 6 -6 10 -13 10 -33 0 -558 187 -568 202 -3 5 -9 8 -12 6
-3 -1 -19 7 -36 20 -29 21 -43 62 -21 62 6 0 10 8 10 18 0 10 3 13 8 6 4 -6
30 -14 57 -17 28 -3 95 -20 150 -37 224 -69 311 -52 455 90 47 47 97 99 111
115 22 27 173 222 209 270 8 11 48 52 88 91 51 51 86 76 120 87 59 20 74 20
97 3z m-318 -16 c-14 -11 -28 -20 -32 -20 -10 0 38 39 49 40 5 0 -3 -9 -17
-20z m414 -3 c-10 -9 -11 -8 -5 6 3 10 9 15 12 12 3 -3 0 -11 -7 -18z m-495
-59 c4 -7 3 -10 -1 -5 -5 4 -18 -1 -29 -10 -21 -18 -21 -18 -2 5 22 26 23 26
32 10z m439 2 c-3 -5 -11 -10 -16 -10 -6 0 -7 5 -4 10 3 6 11 10 16 10 6 0 7
-4 4 -10z m-75 -64 c0 -3 -4 -8 -10 -11 -5 -3 -10 -1 -10 4 0 6 5 11 10 11 6
0 10 -2 10 -4z m-520 -70 c0 -2 -8 -10 -17 -17 -16 -13 -17 -12 -4 4 13 16 21
21 21 13z m450 -11 c-7 -9 -15 -13 -17 -11 -7 7 7 26 19 26 6 0 6 -6 -2 -15z
m-560 -99 c0 -2 -8 -10 -17 -17 -16 -13 -17 -12 -4 4 13 16 21 21 21 13z
m-117 -151 c-3 -9 -8 -14 -10 -11 -3 3 -2 9 2 15 9 16 15 13 8 -4z m-658 -35
c3 -6 -1 -7 -9 -4 -18 7 -21 14 -7 14 6 0 13 -4 16 -10z m613 -14 c-7 -8 -15
-12 -17 -11 -5 6 10 25 20 25 5 0 4 -6 -3 -14z m-868 0 c0 -2 -8 -10 -17 -17
-16 -13 -17 -12 -4 4 13 16 21 21 21 13z m385 -24 c-3 -3 -11 0 -18 7 -9 10
-8 11 6 5 10 -3 15 -9 12 -12z m-199 -78 c1 -9 0 -13 -4 -10 -3 4 -7 14 -8 22
-1 9 0 13 4 10 3 -4 7 -14 8 -22z m49 -15 c-4 -5 -12 -9 -18 -8 -9 0 -8 2 1 6
6 2 9 10 6 15 -4 7 -2 8 5 4 6 -4 9 -12 6 -17z m35 -3 c0 -2 -7 -7 -16 -10 -8
-3 -12 -2 -9 4 6 10 25 14 25 6z m883 -151 c-3 -9 -8 -14 -10 -11 -3 3 -2 9 2
15 9 16 15 13 8 -4z m-801 -78 c24 -13 45 -36 58 -62 23 -47 13 -43 352 -150
97 -30 184 -58 192 -61 10 -4 22 6 36 28 11 18 20 28 20 23 0 -6 -6 -19 -14
-30 -7 -11 -16 -47 -20 -80 -10 -77 -55 -260 -113 -450 -45 -149 -69 -205 -87
-205 -23 0 -254 85 -250 92 3 4 -1 5 -9 3 -7 -3 -74 16 -148 43 -74 26 -153
54 -176 62 -24 7 -43 17 -43 22 0 21 23 98 29 98 4 0 7 8 7 18 0 9 3 36 7 59
4 24 2 45 -3 48 -6 3 -10 1 -10 -4 0 -6 -9 -11 -20 -11 -14 0 -20 7 -20 21 0
11 -22 41 -49 68 -110 108 -119 198 -27 279 29 26 36 38 36 69 0 50 17 108 35
123 41 34 154 33 217 -3z m684 -164 c-8 -15 -15 -25 -16 -21 0 12 23 58 27 54
3 -2 -2 -17 -11 -33z m-866 -714 c0 -5 4 -8 9 -5 4 3 129 -35 277 -85 163 -55
284 -90 307 -90 41 1 58 -19 37 -44 -7 -8 -10 -15 -7 -15 3 0 -1 -23 -8 -52
-8 -28 -12 -55 -9 -60 3 -5 0 -15 -6 -23 -7 -8 -9 -22 -6 -32 4 -9 2 -19 -3
-22 -6 -4 -12 -28 -14 -55 -2 -26 -13 -59 -23 -73 l-19 -25 -34 31 c-35 32
-204 102 -376 157 -49 15 -91 31 -93 35 -2 5 -10 5 -18 2 -18 -7 -18 2 1 74
25 95 15 212 -23 271 -9 14 -10 22 -3 22 6 0 11 -5 11 -11z m-615 -209 c618
-215 1118 -391 1134 -399 10 -6 33 -33 49 -60 29 -47 30 -50 17 -87 -8 -22
-14 -47 -15 -56 0 -17 -36 -48 -55 -48 -5 0 -24 22 -42 49 -31 47 -33 49 -170
98 -76 28 -139 49 -141 48 -1 -1 10 -39 24 -85 22 -68 25 -86 15 -102 -18 -29
-9 -31 48 -8 l53 20 203 -75 c306 -112 276 -96 307 -166 24 -54 26 -70 22
-142 -8 -138 -54 -265 -132 -363 -31 -39 -53 -55 -108 -77 -52 -20 -78 -26
-103 -21 l-34 7 42 -59 c23 -32 50 -69 60 -80 27 -31 114 -181 165 -282 85
-171 149 -367 182 -557 25 -144 30 -431 10 -547 -46 -272 -136 -460 -231 -484
-52 -13 -158 28 -170 66 -3 10 4 65 17 122 20 90 22 131 22 333 0 211 -2 240
-27 355 -86 408 -286 764 -594 1060 -141 136 -265 223 -438 309 -330 164 -685
222 -1040 170 -81 -12 -272 -60 -330 -84 -86 -35 -231 -111 -247 -130 -17 -20
-17 -19 -18 11 -1 89 72 236 164 332 65 68 124 111 76 56 -14 -16 2 -4 35 26
62 57 69 60 340 147 28 9 54 19 58 23 4 4 -38 24 -95 46 l-102 39 -27 70 c-32
80 -35 137 -14 228 19 82 37 125 86 203 35 54 50 68 113 102 l73 40 231 -82
c218 -76 232 -83 243 -111 10 -28 11 -29 22 -10 7 11 24 32 40 46 l27 27 -82
28 c-137 45 -165 59 -172 88 -4 16 -1 36 9 51 8 14 22 36 30 49 l15 25 172
-61 c95 -33 223 -77 283 -98z m4055 -335 c20 -63 70 -335 81 -444 14 -139 6
-395 -15 -469 -8 -30 -42 -113 -75 -186 -139 -305 -140 -434 -8 -696 99 -198
188 -345 297 -494 130 -176 145 -210 145 -326 0 -78 -3 -90 -34 -147 -18 -34
-57 -85 -86 -112 -73 -70 -135 -98 -241 -111 -160 -20 -222 -48 -250 -116 -19
-45 -18 -159 2 -246 39 -170 -10 -267 -149 -293 l-36 -7 20 -40 c45 -88 30
-220 -31 -271 -30 -26 -100 -51 -178 -63 -48 -8 -96 -36 -124 -74 -19 -26 -19
-26 14 -90 31 -59 33 -70 33 -159 0 -62 -7 -116 -18 -153 -21 -68 -88 -171
-139 -211 l-37 -30 -63 26 c-84 33 -233 73 -333 88 -44 7 -91 20 -105 29 -14
9 -49 30 -77 45 -29 16 -53 32 -53 37 0 4 -7 8 -15 8 -7 0 -18 6 -22 13 -4 7
-26 26 -48 42 -22 16 -45 34 -50 39 -6 6 -19 16 -30 22 -15 8 -24 34 -39 110
-10 54 -35 142 -54 194 -19 52 -35 100 -36 105 -1 6 -21 50 -45 100 -40 83
-43 94 -37 144 7 60 44 176 81 255 13 28 37 83 55 121 48 107 184 358 188 346
5 -16 -25 -112 -70 -225 -22 -56 -49 -123 -59 -151 l-19 -50 29 33 c16 18 52
76 81 128 29 52 53 94 55 94 2 0 2 -11 0 -25 -4 -44 12 -37 25 10 17 60 22 52
10 -16 -5 -30 -11 -74 -14 -99 -7 -61 46 101 104 317 24 90 45 161 47 159 2
-2 -1 -70 -6 -152 -15 -211 -22 -461 -11 -399 4 28 22 160 40 295 39 305 47
339 50 205 l3 -100 8 95 c31 335 41 436 54 525 34 246 28 226 113 378 44 78
96 175 117 215 39 74 55 89 55 50 0 -13 5 -30 10 -38 7 -11 10 -8 10 16 0 30
1 31 32 25 27 -6 36 -14 49 -51 l17 -45 4 35 4 35 19 -38 c16 -32 20 -35 26
-20 6 15 10 13 20 -14 20 -50 32 -42 32 20 0 24 2 22 37 -29 18 -25 34 -43 37
-41 2 3 -2 30 -11 61 -16 63 -16 62 42 12 32 -28 27 -6 -9 44 -28 39 -29 42
-10 37 11 -3 21 -2 21 2 0 10 -37 44 -73 66 -27 17 -28 17 -42 -1 -10 -14 -26
-19 -62 -19 -48 0 -133 30 -133 47 0 11 2 10 43 -7 81 -34 136 -14 173 61 25
52 27 53 62 49 21 -2 55 -11 77 -19 22 -8 51 -15 64 -16 24 0 24 1 5 14 -17
13 -11 13 41 1 72 -17 107 -19 85 -5 -10 6 4 10 45 13 46 2 55 5 37 11 -21 8
-21 9 -5 21 15 11 8 13 -46 8 -71 -7 -79 9 -14 23 34 7 30 9 -43 14 -107 7
-134 24 -134 85 0 35 -4 47 -22 56 -28 15 -149 4 -190 -17 -16 -8 -32 -14 -34
-11 -5 5 21 68 32 80 4 4 9 15 10 23 1 9 19 49 39 89 20 40 38 81 40 92 8 39
151 359 170 381 4 5 78 -30 116 -55 21 -13 43 -22 49 -18 6 3 9 3 8 -2 -2 -4
23 -32 54 -62 65 -60 92 -118 86 -180 -3 -37 -1 -41 19 -41 49 0 76 92 49 164
-20 52 -61 100 -78 90 -6 -4 -8 -3 -4 4 12 20 -172 110 -237 115 -15 1 -29 9
-32 18 -3 9 33 89 80 180 48 90 134 261 192 379 l105 215 14 -50 c8 -27 18
-63 24 -80z m-3870 -1050 c40 -14 42 -14 29 3 -7 9 2 2 21 -16 18 -18 39 -31
45 -28 6 2 31 -16 54 -40 23 -24 47 -43 53 -41 5 1 12 -6 13 -16 2 -10 15 -33
29 -52 17 -22 26 -46 26 -69 0 -35 -1 -36 -35 -36 -44 0 -82 19 -218 109 -59
39 -111 71 -117 71 -5 0 -10 3 -10 8 0 4 -16 16 -35 26 -40 22 -45 47 -12 69
45 29 96 33 157 12z m-27 -184 c31 -16 58 -27 61 -25 3 2 4 1 2 -2 -6 -7 64
-69 77 -69 6 0 12 -9 14 -20 1 -11 6 -38 9 -59 l7 -39 -36 6 c-19 3 -75 32
-123 65 -49 32 -110 71 -136 86 -56 33 -60 52 -15 71 48 21 79 18 140 -14z
m3121 -85 c-10 -20 -22 -36 -26 -36 -5 0 2 18 14 39 28 49 35 47 12 -3z m-74
-140 c0 -2 -8 -21 -17 -42 -13 -30 -18 -35 -21 -20 -2 10 1 22 8 26 6 4 11 10
11 14 -3 18 0 26 9 26 6 0 10 -2 10 -4z m186 -48 c-7 -37 -51 -104 -73 -112
-15 -6 -91 11 -106 24 -4 3 -1 23 6 44 l13 38 13 -25 c11 -20 18 -23 40 -18
14 4 35 22 46 39 13 21 26 31 38 28 9 -2 17 0 17 5 0 5 3 9 6 9 4 0 4 -15 0
-32z m-3314 -16 c20 -17 15 -32 -11 -32 -16 0 -51 38 -51 55 0 10 43 -6 62
-23z m-72 -67 c7 -9 19 -14 26 -11 7 3 16 0 20 -6 4 -7 3 -8 -5 -4 -8 6 -10 1
-6 -17 4 -14 2 -28 -4 -31 -6 -4 -11 -3 -11 1 0 5 -15 15 -34 21 -39 14 -61
36 -51 52 9 15 51 12 65 -5z m-247 -100 c48 -19 90 -35 94 -35 3 0 -4 11 -17
25 -12 13 -27 22 -33 18 -6 -3 -7 -1 -3 5 18 30 103 -2 142 -53 14 -19 29 -33
33 -31 4 3 8 -7 9 -20 1 -14 -2 -23 -7 -20 -5 4 -7 -2 -4 -13 7 -29 -15 -35
-37 -9 -16 19 -19 20 -20 6 0 -10 -5 -18 -11 -18 -6 0 -55 32 -108 71 -53 39
-106 76 -118 82 -22 10 -31 27 -15 27 4 0 47 -16 95 -35z m3316 -66 c-99 -201
-144 -287 -148 -284 -3 4 33 86 157 353 9 20 18 30 24 24 5 -5 -8 -43 -33 -93z
m-4430 -172 c8 -11 5 -17 -14 -27 -32 -17 -27 -32 16 -46 66 -21 99 -39 95
-50 -2 -6 2 -11 10 -11 7 0 11 4 8 9 -3 4 0 8 7 8 7 0 9 10 7 25 -6 30 -4 31
32 5 26 -19 28 -23 18 -51 -8 -24 -7 -33 7 -49 10 -11 15 -20 10 -20 -4 0 -3
-6 3 -12 13 -17 6 -73 -13 -102 -8 -12 -12 -26 -8 -31 5 -4 3 -5 -4 -1 -7 4
-17 -2 -23 -15 -11 -19 -18 -21 -67 -17 -30 3 -58 9 -61 14 -4 5 -14 10 -22
12 -50 11 -181 109 -146 109 8 0 13 -4 11 -8 -6 -9 23 -32 44 -35 13 -2 12 0
-3 12 -19 13 -19 14 -1 14 18 0 18 0 0 13 -14 11 -15 16 -5 22 9 6 11 4 5 -6
-5 -8 -4 -11 1 -6 5 5 9 21 10 35 0 15 8 53 18 85 18 60 16 89 -6 83 -7 -1
-10 -1 -6 1 5 3 3 13 -2 23 -8 15 -6 19 13 23 42 8 55 7 66 -6z m603 -62 c23
-15 47 -45 63 -80 63 -127 0 -268 -118 -268 -59 0 -105 28 -142 88 -26 41 -30
58 -30 114 1 43 7 77 18 99 39 72 139 95 209 47z m314 -25 c166 -49 233 -79
256 -117 26 -44 43 -209 26 -258 -15 -45 -44 -57 -72 -30 -15 15 -15 19 1 46
17 28 17 30 -5 52 -34 33 -96 28 -180 -14 -56 -28 -68 -39 -70 -62 -7 -63 86
-146 151 -133 17 4 49 23 70 44 37 36 39 36 53 18 20 -27 18 -49 -8 -81 -27
-34 -67 -51 -162 -70 -68 -12 -108 -29 -206 -85 -41 -24 -73 -26 -90 -5 -10
12 -8 22 9 55 24 45 27 80 9 98 -25 25 3 23 51 -4 27 -16 53 -25 57 -21 9 8 7
145 -2 159 -4 6 -22 7 -41 3 -32 -6 -35 -4 -28 12 22 54 24 77 10 117 -24 68
-15 106 25 106 31 0 40 21 24 52 -10 20 -13 42 -9 68 5 28 2 46 -10 64 -10 14
-13 26 -8 26 6 0 73 -18 149 -40z m564 -556 c29 -9 87 -31 128 -51 l74 -35
115 16 c63 9 118 16 122 16 4 0 13 -11 19 -25 11 -23 10 -25 -16 -27 -107 -6
-233 -29 -239 -44 -3 -8 -9 -14 -15 -14 -5 0 -6 5 -3 10 7 11 4 12 -36 14 -15
1 -26 -3 -26 -11 0 -7 5 -13 11 -14 6 0 2 -4 -10 -9 -16 -6 -23 -24 -34 -82
-7 -40 -17 -77 -22 -82 -4 -6 -8 -17 -8 -25 0 -35 -14 -41 -61 -27 -122 37
-222 113 -256 194 -32 76 -11 166 45 196 36 20 145 20 212 0z m170 -154 c0 -5
-5 -10 -11 -10 -5 0 -7 5 -4 10 3 6 8 10 11 10 2 0 4 -4 4 -10z m20 -31 c0 -5
-4 -7 -10 -4 -6 4 -7 -5 -4 -23 3 -16 2 -32 -4 -36 -5 -3 -10 0 -9 7 1 34 -5
47 -20 46 -13 0 -14 -2 -4 -6 10 -4 10 -7 1 -13 -16 -10 -20 -43 -6 -53 7 -6
6 -7 -4 -4 -17 4 -27 57 -11 57 6 0 10 5 9 12 -2 6 8 15 22 19 36 10 40 10 40
-2z m826 -53 c4 -26 0 -45 -17 -75 l-23 -41 -23 22 c-13 12 -23 24 -23 28 0
13 60 100 69 100 6 0 13 -15 17 -34z m-869 -8 c-3 -8 -6 -5 -6 6 -1 11 2 17 5
13 3 -3 4 -12 1 -19z m-40 -75 c-3 -10 -5 -2 -5 17 0 19 2 27 5 18 2 -10 2
-26 0 -35z m-278 -30 c1 -7 -2 -13 -7 -13 -10 0 -62 60 -62 72 0 14 68 -44 69
-59z m309 55 c-2 -7 3 -12 10 -10 8 1 11 -2 7 -8 -3 -6 -11 -8 -16 -5 -5 4 -9
2 -9 -4 0 -5 5 -11 11 -13 15 -5 -17 -68 -34 -68 -8 0 -7 4 3 10 8 5 11 10 7
10 -5 0 -5 6 0 13 4 6 8 26 9 42 2 39 3 45 9 45 3 0 4 -6 3 -12z m-52 -93 c-3
-8 -11 -15 -18 -15 -10 0 -10 2 0 9 8 4 13 11 13 15 -1 3 -1 12 0 19 0 9 2 9
6 -1 3 -7 2 -19 -1 -27z m-111 -25 c3 -5 -1 -10 -9 -10 -9 0 -16 5 -16 10 0 6
4 10 9 10 6 0 13 -4 16 -10z m-1132 -200 c49 -35 57 -43 32 -34 -8 4 -15 1
-15 -5 0 -28 -129 72 -172 131 -12 18 -17 28 -10 24 16 -9 15 6 0 24 -7 8 16
-13 52 -46 36 -33 86 -75 113 -94z m3576 -1396 l46 -23 -55 0 c-48 0 -60 4
-93 32 -26 23 -36 38 -32 49 6 15 11 14 48 -9 22 -14 61 -36 86 -49z m122 -22
c-10 -3 -81 35 -81 44 0 2 21 -6 46 -18 25 -13 40 -24 35 -26z"/>
<path d="M9055 7903 c-62 -15 -90 -105 -43 -137 51 -36 118 -5 118 55 0 42
-29 92 -50 88 -3 -1 -14 -3 -25 -6z"/>
<path d="M9166 7721 l-39 -39 44 5 c24 3 46 7 48 9 2 2 0 17 -5 34 l-9 31 -39
-40z"/>
<path d="M8018 6535 c-4 -22 -8 -57 -8 -77 0 -20 -5 -49 -10 -64 -13 -34 4
-55 74 -89 46 -22 204 -60 213 -51 2 2 -49 25 -113 51 -134 56 -135 57 -143
185 -5 75 -7 80 -13 45z"/>
<path d="M9229 6313 c-13 -16 -12 -17 4 -4 9 7 17 15 17 17 0 8 -8 3 -21 -13z"/>
<path d="M9200 6270 c-6 -11 -8 -20 -6 -20 3 0 10 9 16 20 6 11 8 20 6 20 -3
0 -10 -9 -16 -20z"/>
<path d="M7070 5990 c-6 -11 -8 -20 -6 -20 3 0 10 9 16 20 6 11 8 20 6 20 -3
0 -10 -9 -16 -20z"/>
<path d="M8946 5971 c70 -64 154 -92 154 -51 0 16 -7 20 -32 20 -18 0 -53 9
-77 20 -47 22 -60 25 -45 11z"/>
<path d="M9850 5948 c-28 -44 -40 -70 -40 -90 0 -11 -5 -29 -11 -41 -10 -21
-10 -21 5 -3 9 11 16 26 16 33 0 7 5 13 10 13 6 0 19 15 30 33 11 17 20 25 20
17 0 -13 1 -13 10 0 16 25 12 60 -8 60 -9 0 -24 -10 -32 -22z"/>
<path d="M7175 4660 c3 -5 8 -10 11 -10 2 0 4 5 4 10 0 6 -5 10 -11 10 -5 0
-7 -4 -4 -10z"/>
<path d="M7280 4586 c0 -2 7 -7 16 -10 8 -3 12 -2 9 4 -6 10 -25 14 -25 6z"/>
<path d="M7283 4538 c0 -21 2 -26 8 -17 8 13 13 5 10 -14 -1 -5 3 -5 9 -2 8 5
7 12 -4 23 -8 10 -15 21 -14 25 0 25 -7 11 -9 -15z"/>
<path d="M7578 4702 c-37 -22 -59 -72 -60 -131 0 -95 58 -171 139 -178 43 -5
52 -2 80 24 39 37 58 101 45 152 l-10 36 -1 -42 c-1 -23 -6 -45 -11 -48 -6 -4
-8 -10 -6 -14 12 -18 -66 -77 -111 -84 -30 -5 -34 -2 -57 44 -33 62 -33 85 3
118 15 14 32 38 36 51 10 31 22 40 58 40 18 0 39 -11 58 -29 36 -37 37 -29 3
17 -45 58 -114 77 -166 44z"/>
<path d="M7600 4545 c-18 -21 -5 -45 25 -45 21 0 25 5 25 30 0 23 -5 30 -19
30 -10 0 -24 -7 -31 -15z"/>
<path d="M7721 4521 c-8 -5 -11 -16 -8 -26 8 -20 23 -13 30 15 6 22 0 25 -22
11z"/>
<path d="M7655 4470 c-3 -5 1 -10 9 -10 9 0 16 5 16 10 0 6 -4 10 -9 10 -6 0
-13 -4 -16 -10z"/>
</g>
</svg>
