<?xml version="1.0" standalone="no"?>
<!DOCTYPE svg PUBLIC "-//W3C//DTD SVG 20010904//EN"
 "http://www.w3.org/TR/2001/REC-SVG-20010904/DTD/svg10.dtd">
<svg version="1.0" xmlns="http://www.w3.org/2000/svg"
 width="416.000000pt" height="269.000000pt" viewBox="0 0 416.000000 269.000000"
 preserveAspectRatio="xMidYMid meet">

<g transform="translate(0.000000,269.000000) scale(0.100000,-0.100000)"
fill="#000000" stroke="none">
<path d="M0 1345 l0 -1345 2080 0 2080 0 0 1345 0 1345 -2080 0 -2080 0 0
-1345z m2465 915 c-28 -12 -37 -12 -30 0 3 6 16 10 28 9 21 0 21 -1 2 -9z
m-45 -110 c0 -5 -9 -6 -20 -3 -11 3 -20 9 -20 13 0 5 9 6 20 3 11 -3 20 -9 20
-13z m-603 4 c-3 -3 -12 -4 -19 -1 -8 3 -5 6 6 6 11 1 17 -2 13 -5z m1299
-104 c80 -70 130 -140 149 -208 9 -31 19 -64 22 -72 10 -24 9 -74 -2 -82 -5
-4 10 -8 35 -9 l45 -2 -45 -7 c-39 -6 -40 -7 -12 -8 17 -1 32 -6 32 -10 0 -5
-12 -7 -28 -4 -21 3 -36 -5 -70 -37 -23 -22 -42 -45 -42 -51 0 -15 -47 -12
-53 4 -3 7 1 26 9 41 8 16 12 37 8 48 -6 19 -7 18 -28 -5 -11 -14 -36 -33 -53
-42 -18 -9 -33 -20 -33 -24 0 -4 -13 -16 -30 -25 -22 -14 -34 -15 -49 -8 -22
12 -36 -9 -26 -40 7 -21 27 -24 54 -10 19 11 107 -10 95 -22 -4 -4 1 -7 10 -7
12 0 16 -5 12 -16 -3 -8 -2 -13 3 -10 4 3 16 0 25 -7 16 -12 15 -14 -8 -34
-20 -17 -26 -19 -30 -7 -3 8 -14 14 -25 14 -14 0 -20 -9 -23 -37 -3 -21 -2
-39 2 -41 12 -5 -1 -56 -18 -69 -23 -18 -29 -16 -36 12 -4 15 -14 25 -24 25
-11 0 -25 14 -35 35 -11 23 -24 35 -37 35 -11 0 -33 14 -49 30 l-28 30 -62
-19 c-33 -10 -61 -16 -61 -12 0 4 -16 8 -37 8 -26 1 -32 -2 -22 -9 10 -6 2 -8
-26 -3 -31 4 -37 3 -25 -5 12 -9 9 -10 -15 -6 l-30 5 30 -15 30 -15 -30 7
c-31 8 -54 8 -93 3 -21 -3 -22 -4 -6 -16 14 -10 10 -11 -22 -6 -22 3 -50 10
-64 14 -21 7 -19 8 13 6 20 -2 37 0 37 4 0 4 12 9 28 11 15 2 26 8 25 16 -2 6
1 12 6 12 6 0 24 13 42 30 18 16 37 26 43 22 13 -8 59 -9 66 -2 3 3 19 10 35
15 17 6 41 27 54 48 19 29 27 34 38 25 10 -8 17 -8 25 0 7 7 25 12 41 12 16 0
26 4 22 10 -8 13 35 13 55 1 8 -6 19 -7 24 -3 6 3 21 7 34 8 30 3 92 45 92 62
0 14 -106 94 -162 123 -21 11 -38 22 -38 25 0 2 9 0 20 -6 11 -6 26 -8 32 -4
6 4 9 3 5 -2 -3 -5 12 -20 34 -32 36 -21 39 -21 39 -4 0 10 6 27 14 37 13 18
15 18 30 2 21 -20 32 -21 40 -4 4 8 8 9 11 1 3 -6 13 -20 21 -30 14 -18 15
-18 9 6 -5 25 -5 25 6 3 16 -31 28 -29 36 8 4 22 8 27 14 17 6 -8 9 -9 9 -1 0
6 14 16 31 22 32 11 32 13 -2 62 -10 14 -16 29 -12 33 3 3 -3 6 -14 6 -17 0
-23 10 -33 49 -12 49 -55 101 -130 154 -20 14 -21 16 -3 7 12 -6 48 -33 79
-60z m-171 39 c25 -12 45 -25 45 -31 0 -5 3 -7 8 -4 4 2 16 -2 27 -10 18 -13
18 -14 -7 -14 -15 0 -34 8 -44 18 -10 9 -19 16 -21 15 -8 -7 -23 -2 -19 6 4 5
-7 12 -24 16 -17 4 -28 11 -24 16 7 12 8 12 59 -12z m151 -101 c44 -47 70 -88
78 -123 l7 -30 -23 35 c-12 19 -28 41 -35 48 -7 8 -11 18 -8 23 4 5 0 9 -7 9
-7 0 -24 10 -38 21 -14 11 -18 17 -10 13 10 -5 9 0 -4 14 -32 37 6 27 40 -10z
m-1893 2 c-13 -13 -45 -15 -83 -5 -32 8 -33 9 -11 14 31 8 105 1 94 -9z m935
-129 c28 -23 28 -31 0 -31 -24 0 -93 -22 -104 -32 -3 -4 4 -12 16 -18 18 -10
24 -9 31 1 8 11 11 11 20 -3 10 -18 35 -23 63 -12 12 5 13 10 5 25 -12 24 -8
24 41 -1 28 -14 41 -17 46 -8 5 7 3 8 -6 3 -8 -5 -11 -3 -8 6 3 10 26 14 84
14 43 0 90 3 104 6 14 3 19 4 12 2 -10 -4 -10 -8 -2 -18 8 -9 8 -15 0 -20 -5
-3 -10 1 -10 9 0 9 -7 16 -16 16 -11 0 -14 -5 -10 -17 7 -18 -36 -63 -62 -63
-11 0 -12 -3 -4 -13 9 -10 -1 -18 -43 -37 -30 -13 -55 -28 -55 -33 0 -11 -26
-37 -37 -37 -22 0 -65 -48 -65 -73 0 -21 -5 -27 -22 -27 -11 0 -16 -4 -11 -8
6 -4 17 -16 25 -27 8 -11 10 -16 5 -12 -5 4 -17 -13 -27 -38 -20 -50 -16 -74
8 -54 11 9 17 9 29 -1 8 -6 19 -9 24 -6 5 4 13 1 17 -5 4 -7 3 -9 -3 -6 -5 3
-23 -3 -40 -13 -22 -13 -33 -15 -36 -7 -2 7 -32 20 -65 30 -46 13 -60 22 -55
33 3 9 0 14 -8 12 -7 -2 -18 7 -23 19 -6 12 -20 24 -31 25 -11 2 -19 9 -18 15
3 12 -15 12 -34 0 -6 -4 -15 -2 -19 4 -4 8 -3 9 4 5 8 -5 10 -1 5 10 -5 14 -8
13 -19 -7 -7 -13 -13 -20 -14 -16 0 5 -5 5 -12 1 -22 -14 -60 -14 -55 0 5 13
-27 16 -48 5 -5 -3 -22 -5 -37 -4 l-28 1 23 -25 c18 -21 18 -23 2 -10 -11 9
-27 20 -35 24 -13 8 -13 7 0 -10 8 -10 10 -16 3 -12 -16 10 -65 -2 -57 -14 3
-5 -1 -6 -9 -3 -20 7 -123 -90 -169 -160 -51 -80 -78 -170 -87 -291 -5 -64
-10 -93 -15 -80 -4 11 -13 31 -19 45 -6 14 -10 30 -9 36 1 6 -18 19 -42 28
-41 16 -94 68 -100 99 -2 7 -6 19 -9 27 -21 57 -25 91 -21 182 2 57 7 119 9
138 3 19 6 46 8 59 1 13 9 26 17 28 13 4 13 3 0 -6 -9 -7 -10 -11 -3 -11 16 0
26 17 13 25 -12 7 5 45 21 45 6 0 7 -5 3 -12 -4 -7 -8 -21 -9 -32 -1 -12 -5
-47 -9 -78 -11 -78 -4 -97 50 -143 30 -24 45 -32 41 -21 -7 18 20 76 35 76 4
0 8 7 8 16 0 10 6 13 18 10 11 -4 27 2 40 14 11 11 26 20 33 20 6 0 9 7 6 14
-4 9 2 17 14 21 12 4 19 14 17 25 -2 10 4 26 13 36 8 11 20 31 27 46 10 24 9
26 -6 22 -16 -5 -16 -4 1 9 9 8 17 25 17 38 -1 32 -42 125 -55 123 -25 -2 -44
-18 -50 -41 -6 -24 -7 -24 -20 -7 -12 17 -13 17 -8 -7 3 -17 -1 -30 -13 -40
-16 -12 -17 -12 -9 1 5 8 -6 0 -24 -17 -34 -34 -51 -41 -51 -21 0 6 -8 4 -19
-6 -10 -9 -22 -16 -27 -15 -21 4 -28 -2 -14 -11 9 -6 10 -10 3 -10 -24 0 -25
22 -2 47 13 15 18 23 10 18 -9 -5 -12 -3 -9 6 3 8 11 13 18 11 10 -2 10 1 -1
14 -12 15 -12 17 0 9 11 -6 13 -4 8 9 -4 9 -3 15 1 13 4 -2 15 4 24 14 12 12
13 19 5 23 -7 2 -1 5 12 5 16 1 21 5 18 16 -4 8 -3 16 1 19 10 6 32 -21 24
-29 -4 -4 3 -3 15 4 31 16 35 14 23 -9 -9 -16 -8 -18 5 -14 9 4 13 9 11 12 -3
3 -1 11 5 19 6 7 10 13 8 14 -25 5 -49 4 -49 -3 0 -5 -5 -6 -11 -3 -12 8 -7
15 13 19 7 1 23 7 35 14 12 7 28 12 37 12 8 0 16 6 19 13 3 6 4 2 4 -10 -1
-12 -6 -19 -12 -15 -5 3 -4 -1 2 -10 7 -8 10 -18 6 -21 -9 -10 -34 14 -26 26
3 6 1 7 -6 3 -6 -4 -8 -13 -4 -19 4 -7 8 -15 9 -19 1 -5 2 -11 3 -15 0 -3 9 1
19 10 10 10 23 14 27 10 5 -5 4 -1 -2 7 -7 10 -8 21 -3 30 7 12 12 11 31 -5
12 -11 20 -15 16 -9 -3 6 0 11 8 11 8 0 13 -3 13 -6 -3 -11 24 -96 33 -107 5
-6 6 -14 3 -17 -4 -3 -4 -13 -1 -21 5 -11 13 -13 35 -6 20 5 34 4 42 -3 10 -9
11 -9 6 0 -4 8 3 11 23 11 16 -1 42 9 59 21 17 12 34 21 39 20 34 -8 112 41
113 70 0 10 3 11 14 2 10 -8 16 -9 21 -1 3 5 19 10 35 10 22 0 28 4 24 15 -4
9 0 15 10 15 9 0 16 5 16 10 0 6 -5 10 -11 10 -5 0 -7 5 -4 10 3 6 37 10 74
10 49 0 72 4 81 15 15 18 13 19 38 -4z m578 4 c17 -13 16 -14 -13 -4 -34 11
-42 19 -20 19 7 0 22 -7 33 -15z m-1819 -73 c17 -14 18 -19 7 -30 -16 -15 -54
-16 -54 -2 0 8 22 50 26 50 0 0 10 -8 21 -18z m1250 2 c-3 -3 -12 -4 -19 -1
-8 3 -5 6 6 6 11 1 17 -2 13 -5z m1206 -81 c-7 -2 -21 -2 -30 0 -10 3 -4 5 12
5 17 0 24 -2 18 -5z m-2556 -155 c-3 -7 -5 -2 -5 12 0 14 2 19 5 13 2 -7 2
-19 0 -25z m2536 5 c-7 -2 -19 -2 -25 0 -7 3 -2 5 12 5 14 0 19 -2 13 -5z
m-2546 -80 c-3 -10 -5 -2 -5 17 0 19 2 27 5 18 2 -10 2 -26 0 -35z m963 -28
c0 -1 -9 -10 -19 -19 -19 -17 -19 -17 -16 1 2 10 4 18 4 19 2 2 31 1 31 -1z
m145 -5 c3 -5 1 -10 -4 -10 -6 0 -11 5 -11 10 0 6 2 10 4 10 3 0 8 -4 11 -10z
m1608 -40 c7 -1 -13 -9 -43 -20 -30 -10 -56 -17 -58 -16 -7 8 64 45 76 41 8
-3 19 -5 25 -5z m-1343 -43 c0 -5 -9 -2 -19 7 -15 13 -20 14 -24 4 -3 -7 -5
-3 -4 8 1 20 3 21 24 7 13 -9 23 -20 23 -26z m221 -29 c7 -14 6 -18 -5 -18 -8
0 -19 6 -23 14 -4 7 -15 16 -23 19 -8 3 -2 5 13 4 16 -1 33 -9 38 -19z m156
16 c-3 -3 -12 -4 -19 -1 -8 3 -5 6 6 6 11 1 17 -2 13 -5z m-250 -10 c-3 -3
-12 -4 -19 -1 -8 3 -5 6 6 6 11 1 17 -2 13 -5z m133 -4 c0 -5 -7 -7 -15 -4 -8
4 -15 8 -15 10 0 2 7 4 15 4 8 0 15 -4 15 -10z m980 -4 c0 -2 -7 -7 -16 -10
-8 -3 -12 -2 -9 4 6 10 25 14 25 6z m-1856 -88 c5 -25 3 -38 -4 -38 -13 0 -30
43 -30 78 0 23 2 24 14 12 7 -8 17 -32 20 -52z m1521 -8 c3 -6 -1 -13 -10 -16
-19 -8 -30 0 -20 15 8 14 22 14 30 1z m-1186 -32 c31 -10 41 -18 45 -41 11
-55 -1 -74 -51 -82 -43 -6 -47 -5 -74 27 -15 18 -31 41 -35 51 -4 14 -13 17
-37 13 -19 -4 -7 4 28 18 73 29 75 29 124 14z m1249 -16 c4 -23 -15 -36 -65
-45 -40 -8 -43 5 -5 23 15 7 22 15 14 17 -23 9 -1 23 26 17 22 -4 24 -3 12 6
-13 10 -13 11 0 7 8 -2 16 -13 18 -25z m-44 -71 c3 -5 15 -7 26 -4 14 4 20 0
20 -11 0 -10 -4 -14 -10 -11 -13 8 -13 3 0 -31 9 -24 5 -21 -28 16 -26 28 -44
40 -52 35 -9 -5 -11 -4 -6 3 9 14 42 16 50 3z m-2169 -133 c-3 -8 -16 -15 -28
-15 -26 0 -58 57 -50 88 5 19 9 18 45 -18 25 -25 37 -45 33 -55z m2132 70 c-3
-8 -6 -5 -6 6 -1 11 2 17 5 13 3 -3 4 -12 1 -19z m-29 -4 c27 -18 29 -34 2
-34 -11 0 -20 -4 -20 -9 0 -4 -8 -8 -17 -8 -44 0 -49 -3 -28 -19 19 -15 19
-16 -13 -12 -28 4 -31 2 -26 -15 5 -16 3 -17 -13 -9 -14 8 -26 7 -44 -3 -13
-8 -32 -18 -42 -21 -15 -5 -16 -9 -5 -15 10 -7 10 -9 -2 -9 -9 0 -21 5 -28 12
-9 9 -12 9 -12 0 0 -8 -10 -11 -27 -7 -18 3 -13 -1 12 -10 l40 -15 -38 6 c-25
3 -37 2 -33 -5 4 -6 -2 -8 -14 -6 -11 2 -19 -1 -17 -7 1 -7 -14 -15 -33 -18
-47 -9 -111 -40 -104 -51 3 -6 -10 -8 -29 -6 -23 3 -34 0 -31 -7 3 -8 -9 -10
-36 -8 -31 3 -45 0 -56 -14 -10 -14 -14 -15 -12 -4 2 9 -5 15 -15 15 -10 0
-22 6 -26 13 -9 15 -20 15 -38 0 -9 -7 -13 -7 -13 1 0 6 11 16 24 23 18 7 27
22 31 49 7 40 0 63 -16 54 -5 -4 -9 -1 -9 4 0 6 8 11 18 12 10 0 12 3 4 6 -6
2 -10 9 -6 14 3 5 -1 9 -8 10 -35 1 47 21 141 34 58 7 114 17 123 20 12 5 20
1 24 -9 9 -24 249 -24 258 0 4 9 1 23 -5 30 -16 19 7 19 45 -1 39 -21 43 -19
18 8 l-22 23 38 1 c20 1 47 -5 60 -13z m-165 -51 c-7 -2 -19 -2 -25 0 -7 3 -2
5 12 5 14 0 19 -2 13 -5z m151 -20 c-5 -5 -12 -12 -16 -18 -4 -6 -8 -2 -8 8 0
9 7 17 17 17 9 0 12 -3 7 -7z m-706 -168 c-6 -14 -13 -23 -15 -21 -5 5 15 46
22 46 3 0 -1 -11 -7 -25z m-78 -265 c-23 -32 -89 -90 -104 -90 -5 0 18 27 50
60 62 64 89 79 54 30z"/>
<path d="M1233 1705 c0 -8 4 -12 9 -9 5 3 6 10 3 15 -9 13 -12 11 -12 -6z"/>
<path d="M1264 1677 c0 -13 5 -24 12 -24 14 0 12 23 -2 37 -7 7 -10 2 -10 -13z"/>
<path d="M1226 1672 c2 -3 -1 -11 -7 -19 -8 -9 -8 -13 -1 -13 16 0 26 20 15
30 -6 4 -8 5 -7 2z"/>
<path d="M2890 999 c0 -5 5 -7 10 -4 6 3 10 8 10 11 0 2 -4 4 -10 4 -5 0 -10
-5 -10 -11z"/>
</g>
</svg>
